<svg width="241" height="219" viewBox="0 0 241 219" fill="none" xmlns="http://www.w3.org/2000/svg">
<g clip-path="url(#clip0_1_2528)">
<path d="M177.669 179.199C209.088 147.731 209.088 96.7103 177.669 65.2418C146.249 33.7734 95.3087 33.7734 63.8895 65.2418C32.4703 96.7103 32.4703 147.731 63.8895 179.199C95.3087 210.668 146.249 210.668 177.669 179.199Z" fill="#BAF4EE"/>
<path d="M29.5233 164.778C26.409 164.778 23.8892 167.302 23.8892 170.421C23.8892 173.54 26.409 176.064 29.5233 176.064C32.6375 176.064 35.1574 173.54 35.1574 170.421C35.1574 167.302 32.6375 164.778 29.5233 164.778ZM29.5233 172.699C28.2698 172.699 27.2489 171.677 27.2489 170.421C27.2489 169.166 28.2698 168.143 29.5233 168.143C30.7767 168.143 31.7976 169.166 31.7976 170.421C31.7976 171.677 30.7767 172.699 29.5233 172.699Z" fill="#BAF4EE"/>
<path d="M189.208 181.972C186.094 181.972 183.574 184.495 183.574 187.614C183.574 190.734 186.094 193.257 189.208 193.257C192.322 193.257 194.842 190.734 194.842 187.614C194.842 184.495 192.322 181.972 189.208 181.972ZM189.208 189.892C187.954 189.892 186.934 188.87 186.934 187.614C186.934 186.359 187.954 185.337 189.208 185.337C190.461 185.337 191.482 186.359 191.482 187.614C191.482 188.87 190.461 189.892 189.208 189.892Z" fill="#BAF4EE"/>
<path d="M235.263 94.3896C232.885 94.3896 230.947 96.3181 230.947 98.7124C230.947 101.107 232.872 103.035 235.263 103.035C237.653 103.035 239.579 101.107 239.579 98.7124C239.579 96.3181 237.653 94.3896 235.263 94.3896ZM235.263 100.447C234.293 100.447 233.518 99.6702 233.518 98.6995C233.518 97.7288 234.293 96.9523 235.263 96.9523C236.232 96.9523 237.007 97.7288 237.007 98.6995C237.007 99.6702 236.232 100.447 235.263 100.447Z" fill="#BAF4EE"/>
<path d="M159.37 25.3285C156.85 25.3285 154.809 27.3734 154.809 29.8972C154.809 32.421 156.85 34.4659 159.37 34.4659C161.89 34.4659 163.932 32.421 163.932 29.8972C163.932 27.3734 161.89 25.3285 159.37 25.3285ZM159.37 31.735C158.349 31.735 157.522 30.9067 157.522 29.8842C157.522 28.8618 158.349 28.0334 159.37 28.0334C160.391 28.0334 161.218 28.8618 161.218 29.8842C161.218 30.9067 160.391 31.735 159.37 31.735Z" fill="#BAF4EE"/>
<path d="M13.5815 131.677C10.9324 131.677 8.78735 133.825 8.78735 136.479C8.78735 139.132 10.9324 141.28 13.5815 141.28C16.2306 141.28 18.3757 139.132 18.3757 136.479C18.3757 133.825 16.2306 131.677 13.5815 131.677Z" fill="#BAF4EE"/>
<path d="M205.826 147.57C203.9 147.57 202.337 149.136 202.337 151.065C202.337 152.993 203.9 154.559 205.826 154.559C207.751 154.559 209.315 152.993 209.315 151.065C209.315 149.136 207.751 147.57 205.826 147.57Z" fill="#BAF4EE"/>
<path d="M90.4171 26.7651C87.6 26.7651 85.3257 29.043 85.3257 31.8644C85.3257 34.6859 87.6 36.9638 90.4171 36.9638C93.2341 36.9638 95.5084 34.6859 95.5084 31.8644C95.5084 29.043 93.2341 26.7651 90.4171 26.7651Z" fill="#BAF4EE"/>
<path d="M117.683 211.558C115.628 211.558 113.974 213.228 113.974 215.273C113.974 217.317 115.641 218.987 117.683 218.987C119.725 218.987 121.392 217.317 121.392 215.273C121.392 213.228 119.725 211.558 117.683 211.558Z" fill="#BAF4EE"/>
<path d="M189.531 46.4377C187.127 46.4377 185.176 48.392 185.176 50.7993C185.176 53.2066 187.127 55.1609 189.531 55.1609C191.934 55.1609 193.886 53.2066 193.886 50.7993C193.886 48.392 191.934 46.4377 189.531 46.4377Z" fill="#BAF4EE"/>
<path d="M35.2133 85.3299C36.5835 85.3299 37.6943 84.2173 37.6943 82.8449C37.6943 81.4725 36.5835 80.36 35.2133 80.36C33.843 80.36 32.7322 81.4725 32.7322 82.8449C32.7322 84.2173 33.843 85.3299 35.2133 85.3299Z" fill="#BAF4EE"/>
<path d="M236.775 72.6333C234.436 72.6333 232.549 74.5358 232.549 76.8655C232.549 79.1951 234.449 81.0977 236.775 81.0977C239.101 81.0977 241 79.1951 241 76.8655C241 74.5358 239.101 72.6333 236.775 72.6333Z" fill="#BAF4EE"/>
<path d="M11.2037 100.46C12.6953 100.46 13.9044 99.2486 13.9044 97.7547C13.9044 96.2608 12.6953 95.0497 11.2037 95.0497C9.7121 95.0497 8.50293 96.2608 8.50293 97.7547C8.50293 99.2486 9.7121 100.46 11.2037 100.46Z" fill="#BAF4EE"/>
<path d="M124.687 17.6924L126.38 15.9969C126.961 15.4145 126.961 14.4438 126.38 13.8614C125.798 13.279 124.829 13.279 124.248 13.8614L122.555 15.5569L120.862 13.8614C120.28 13.279 119.311 13.279 118.73 13.8614C118.148 14.4438 118.148 15.4145 118.73 15.9969L120.423 17.6924L118.73 19.3879C118.148 19.9703 118.148 20.941 118.73 21.5234C119.311 22.1058 120.28 22.1058 120.862 21.5234L122.555 19.8279L124.248 21.5234C124.829 22.1058 125.798 22.1058 126.38 21.5234C126.961 20.941 126.961 19.9703 126.38 19.3879L124.687 17.6924Z" fill="#BAF4EE"/>
<path d="M9.27829 69.0094L10.9711 67.3139C11.5526 66.7315 11.5526 65.7608 10.9711 65.1784C10.3896 64.596 9.42044 64.596 8.83894 65.1784L7.14612 66.8739L5.45331 65.1784C4.87181 64.596 3.90264 64.596 3.32114 65.1784C2.73963 65.7608 2.73963 66.7315 3.32114 67.3139L5.01395 69.0094L3.32114 70.7049C2.73963 71.2873 2.73963 72.258 3.32114 72.8404C3.90264 73.4228 4.87181 73.4228 5.45331 72.8404L7.14612 71.1449L8.83894 72.8404C9.42044 73.4228 10.3896 73.4228 10.9711 72.8404C11.5526 72.258 11.5526 71.2873 10.9711 70.7049L9.27829 69.0094Z" fill="#BAF4EE"/>
<path d="M209.237 172.705L210.672 171.268C211.176 170.763 211.176 169.948 210.672 169.456C210.168 168.951 209.354 168.951 208.862 169.456L207.428 170.893L205.994 169.456C205.49 168.951 204.676 168.951 204.185 169.456C203.681 169.961 203.681 170.776 204.185 171.268L205.619 172.705L204.185 174.141C203.681 174.646 203.681 175.461 204.185 175.953C204.689 176.458 205.503 176.458 205.994 175.953L207.428 174.517L208.862 175.953C209.366 176.458 210.181 176.458 210.672 175.953C211.176 175.448 211.176 174.633 210.672 174.141L209.237 172.705Z" fill="#BAF4EE"/>
</g>
<g clip-path="url(#clip1_1_2528)">
<path d="M170.649 150.704C170.72 150.704 170.788 150.714 170.856 150.714V51L67 51L67 189.765H143.49C142.384 186.727 141.742 183.467 141.719 180.056C141.606 163.988 154.584 150.819 170.652 150.704H170.649ZM84.5091 70.6958H162.135V79.9794H84.5091V70.6958ZM75.7256 91.7017H162.135V100.985H75.7256V91.7017ZM75.7256 112.71H162.135V121.994H75.7256V112.71ZM140.659 164.005H75.7256V154.724H140.659V164.005ZM75.7256 142.997V133.716H162.135V142.997H75.7256Z" fill="#00B3AF"/>
<path d="M162.135 70.6958H84.509V79.9794H162.135V70.6958Z" fill="white"/>
<path d="M162.135 91.7017H75.7256V100.985H162.135V91.7017Z" fill="white"/>
<path d="M162.135 112.71H75.7256V121.994H162.135V112.71Z" fill="white"/>
<path d="M162.135 133.716H75.7256V142.997H162.135V133.716Z" fill="white"/>
<path d="M140.659 154.724H75.7256V164.005H140.659V154.724Z" fill="white"/>
<path d="M170.702 158.151C158.74 158.236 149.075 168.036 149.16 180.003C149.248 191.97 159.045 201.636 171.015 201.55C182.972 201.465 192.64 191.665 192.557 179.693C192.468 167.731 182.667 158.065 170.702 158.153V158.151ZM186.161 184.475H175.478V195.159H166.229V184.475H155.543V175.224H166.229V164.537H175.478V175.224H186.161V184.475Z" fill="#00B3AF"/>
<path d="M170.649 150.704C154.581 150.819 141.603 163.988 141.717 180.056C141.742 183.47 142.384 186.729 143.488 189.765C147.583 201.039 158.41 209.088 171.067 209C187.133 208.884 200.111 195.716 199.998 179.645C199.884 163.643 186.831 150.714 170.856 150.714C170.785 150.714 170.717 150.704 170.649 150.704ZM192.557 179.691C192.642 191.662 182.972 201.462 171.015 201.548C159.045 201.634 149.248 191.97 149.16 180C149.075 168.034 158.74 158.234 170.702 158.148C182.665 158.062 192.468 167.726 192.557 179.688V179.691Z" fill="white"/>
<path d="M175.478 195.162V184.475H186.161V175.224H175.478V164.537H166.229V175.224H155.541V184.475H166.229V195.162H175.478Z" fill="white"/>
</g>
<defs>
<clipPath id="clip0_1_2528">
<rect width="241" height="219" fill="white"/>
</clipPath>
<clipPath id="clip1_1_2528">
<rect width="133" height="158" fill="white" transform="translate(67 51)"/>
</clipPath>
</defs>
</svg>
