<svg width="170" height="61" viewBox="0 0 170 61" fill="none" xmlns="http://www.w3.org/2000/svg">
<path d="M2.19364 41V20.1455H6.3765V41H2.19364ZM22.1017 41V31.8575C22.1017 29.1984 20.6377 27.7642 18.4267 27.7642C16.156 27.7642 14.692 29.1984 14.692 31.8575V41H10.5092V24.4478H14.692V26.5094C15.7676 25.1051 17.5603 24.2088 19.6816 24.2088C23.5358 24.2088 26.2845 26.7185 26.2845 31.2898V41H22.1017ZM28.4994 24.4478H32.9811L37.1639 37.1458L41.3468 24.4478H45.7985L39.6736 41H34.5944L28.4994 24.4478ZM64.1324 32.7239C64.1324 37.9226 60.308 41.2689 55.4978 41.2689C50.7174 41.2689 47.1022 37.9226 47.1022 32.7239C47.1022 27.4953 50.8369 24.1789 55.6173 24.1789C60.3977 24.1789 64.1324 27.4953 64.1324 32.7239ZM51.3448 32.7239C51.3448 36.0104 53.2569 37.6238 55.4978 37.6238C57.7087 37.6238 59.83 36.0104 59.83 32.7239C59.83 29.4075 57.7685 27.824 55.5575 27.824C53.3466 27.824 51.3448 29.4075 51.3448 32.7239ZM67.2007 41V24.4478H71.3835V41H67.2007ZM69.322 22.4759C67.8281 22.4759 66.7525 21.4003 66.7525 20.026C66.7525 18.6516 67.8281 17.576 69.322 17.576C70.786 17.576 71.8914 18.6516 71.8914 20.026C71.8914 21.4003 70.786 22.4759 69.322 22.4759ZM74.4406 32.7239C74.4406 27.5252 77.8466 24.1789 82.627 24.1789C86.7501 24.1789 89.5288 26.3301 90.4251 30.0349H85.9136C85.4355 28.6307 84.3301 27.7344 82.5972 27.7344C80.2667 27.7344 78.7131 29.4971 78.7131 32.7239C78.7131 35.9507 80.2667 37.6836 82.5972 37.6836C84.3301 37.6836 85.4057 36.9068 85.9136 35.4129H90.4251C89.5288 38.9384 86.7501 41.2689 82.627 41.2689C77.8466 41.2689 74.4406 37.9226 74.4406 32.7239ZM100.6 27.6149C98.5985 27.6149 97.015 28.8996 96.6863 31.1703H104.544C104.484 28.9892 102.751 27.6149 100.6 27.6149ZM108.458 35.8013C107.562 38.8488 104.813 41.2689 100.72 41.2689C95.9095 41.2689 92.4138 37.9226 92.4138 32.7239C92.4138 27.4953 95.8199 24.1789 100.72 24.1789C105.5 24.1789 108.876 27.4356 108.876 32.3654C108.876 32.9032 108.846 33.441 108.757 33.9788H96.6564C96.8656 36.4287 98.5387 37.8031 100.63 37.8031C102.423 37.8031 103.409 36.9068 103.947 35.8013H108.458Z" fill="#494949"/>
<g clip-path="url(#clip0_1_614)">
<path d="M158.491 38.4931C158.518 38.4931 158.544 38.497 158.571 38.497V0L118.714 0V53.5739H148.069C147.644 52.4009 147.398 51.1423 147.389 49.8254C147.345 43.6219 152.326 38.5379 158.492 38.4931H158.491ZM125.434 7.60409L155.224 7.60409V11.1883L125.434 11.1883V7.60409ZM122.063 15.7139L155.224 15.7139V19.2981L122.063 19.2981V15.7139ZM122.063 23.8248L155.224 23.8248V27.409L122.063 27.409V23.8248ZM146.982 43.6287H122.063V40.0455H146.982V43.6287ZM122.063 35.5178V31.9346L155.224 31.9346V35.5178H122.063Z" fill="#00B3AF"/>
<path d="M155.224 7.604L125.434 7.604V11.1882L155.224 11.1882V7.604Z" fill="white"/>
<path d="M155.224 15.7138L122.063 15.7138V19.298H155.224V15.7138Z" fill="white"/>
<path d="M155.224 23.8248L122.063 23.8248V27.4089H155.224V23.8248Z" fill="white"/>
<path d="M155.224 31.9345L122.063 31.9345V35.5177H155.224V31.9345Z" fill="white"/>
<path d="M146.982 40.0455H122.063V43.6287H146.982V40.0455Z" fill="white"/>
<path d="M158.512 41.3682C153.921 41.4013 150.212 45.1849 150.244 49.8049C150.278 54.4249 154.038 58.1569 158.631 58.1239C163.22 58.0908 166.93 54.3072 166.898 49.6853C166.865 45.0672 163.103 41.3352 158.512 41.3692V41.3682ZM164.444 51.5313H160.344V55.6563H156.795V51.5313H152.694V47.9598H156.795V43.8339H160.344V47.9598H164.444V51.5313Z" fill="#00B3AF"/>
<path d="M158.491 38.4931C152.325 38.5378 147.344 43.6218 147.388 49.8253C147.398 51.1432 147.644 52.4018 148.068 53.5738C149.639 57.9264 153.794 61.034 158.652 60.9999C164.817 60.9552 169.798 55.8712 169.754 49.6667C169.711 43.4885 164.701 38.497 158.571 38.497C158.543 38.497 158.517 38.4931 158.491 38.4931ZM166.899 49.6843C166.931 54.3062 163.22 58.0898 158.631 58.1229C154.038 58.1559 150.278 54.4249 150.245 49.8039C150.212 45.1839 153.921 41.4003 158.512 41.3672C163.102 41.3341 166.865 45.0652 166.899 49.6833V49.6843Z" fill="white"/>
<path d="M160.344 55.6574V51.5315H164.444V47.9599H160.344V43.834H156.795V47.9599H152.693V51.5315H156.795V55.6574H160.344Z" fill="white"/>
</g>
<defs>
<clipPath id="clip0_1_614">
<rect width="51.0408" height="61" fill="white" transform="translate(118.714)"/>
</clipPath>
</defs>
</svg>
